<?xml version="1.0" encoding="UTF-8"?>
<svg id="Capa_1" data-name="Capa 1" xmlns="http://www.w3.org/2000/svg" viewBox="0 0 595.28 841.89">
  <defs>
    <style>
      .cls-1 {
        fill: #fbd4ac;
      }

      .cls-2 {
        fill: #ed745d;
      }

      .cls-3 {
        fill: #3c322d;
      }

      .cls-4 {
        fill: #dab89b;
      }

      .cls-5 {
        fill: #301e1f;
      }

      .cls-6 {
        fill: #fcdcbe;
      }

      .cls-7 {
        fill: #fbfaf5;
      }

      .cls-8 {
        fill: #eaae83;
      }

      .cls-9 {
        fill: #cabfbb;
      }

      .cls-10 {
        fill: #eed7bf;
      }

      .cls-11 {
        fill: #f7b886;
      }

      .cls-12 {
        fill: #080808;
      }

      .cls-13 {
        fill: #ded5cd;
      }

      .cls-14 {
        fill: #a7753f;
      }

      .cls-15 {
        fill: #f0c096;
      }
    </style>
  </defs>
  <path class="cls-4" d="M368.45,547.58c6.23,1.6,12.91,1.26,19.31,1.91,10.64,1.07,41.12,4.25,48.84,10.29,5.87,4.6-1.96,7.73-6.05,9.12-11.82,4.01-28.38,5.86-40.93,7.23-48.67,5.33-98.45,5.36-147.27,2.9-23.94-1.2-50.31-2.2-73.71-7.36-12.77-2.81-31.82-9.2-6.87-15.97,7.58-2.06,15.66-2.96,23.41-4.25l37.37-3.88c32.96,12.56,65.49,12.69,100.38,10.49,17.27-1.09,29.63-4.18,45.55-10.49Z"/>
  <path class="cls-5" d="M368.45,547.58c-15.91,6.31-28.28,9.4-45.55,10.49-34.88,2.2-67.42,2.07-100.38-10.49-38.62-14.72-56.36-36.18-68.43-75.36-4.28-13.89-7.58-25.25-8.33-39.85-.85-16.68-1.69-48.41,4.82-63.35,1.46-3.34,3.72-6.44,4.92-9.87,4.45-12.73,7.45-25.38,17.41-35.53,1.48-1.51,4.37-3.33,5.27-4.4s1.82-3.53,2.94-5.04c6.04-8.18,15.25-16.96,23.8-22.47,3.08-1.99,14.26-8.93,17.12-9.59,7.08-1.63,10.88-4.28,17.53-6.79,9.98-3.76,31.49-9.27,41.84-8.7,6.73.37,10.64-.6,17.18-.95,42.84-2.3,101.34,22.82,125.37,59.18,10.59,16.02,19.26,36.59,22.09,55.66,6.52,43.98,3.6,92.64-22.09,130.29-13.12,19.24-34.39,28.4-55.51,36.77ZM445.23,413.55c-.04-6.82.5-13.23-.63-20.12-7.68-46.88-28.37-83.8-71.23-106.19-13.3-6.95-35.21-14.69-50.05-16.72-7.62-1.04-15.38-.34-23.06-.54l9.36,2.32c5.09-.38,9.95,1.87,14.97,1.32,11.63,6.11,27.42,8.7,37.89,16.41,5.08,3.74,10.43,9.79,15.83,12.78,1.83,1.01,3.64,1.06,5.26,1.89,6.12,3.17,15.15,17.93,19.49,23.91,1.42,1.96,3.86,4.09,5.08,5.87,1.96,2.86,10.35,22.87,11.46,26.71,1.66,5.78.93,11,1.89,16.24.35,1.93,3,5.04,3.84,7.61,5.57,17.05,3.47,43.56.17,61.02-.13.7-.73,1.86.17,2.31-2.1,3.05-1.83,13.04-2.87,17.32-.72,2.95-3.31,6.25-4.64,9.27-8.09,18.38-14.75,27.2-29.33,40.96-.12.12-.72-.24-1.3.38-4.99,5.19-2.89,6.22-10.63,10.31-6.84,3.62-14.68,8.59-22.29,11.19-5.15,1.76-9.61.6-14.49,1.72-2.71.62-6.22,2.55-9.13,3.27-9.95,2.46-20.42,1.22-30.49,1.94-2.7.19-6.2,1.42-8.59,1.46-4.22.08-10.34-1.47-14.78-1.94-24.17-2.55-50.18-7.97-72.34-17.79-13.02-5.77-15.06-7.51-24.3-17.69-2-2.2-2.29-3.03-5.17-3.64-.3-1.71-.33-2.41-1.71-3.8-.48-.49-1.32-.36-1.67-.81-.64-.81-1.39-5.03-2-6.47-.56-1.33-2.24-2-2.03-4.17l-4.51-4.79c.06,2.99,2.35,5.68,3.54,8.14s2.15,5.26,3.7,7.74c.36.57,2.67,3.91,2.88,4.04.53.33,1.29,0,1.79.11.78,4.49.83,3.11,3.34,6.44,12.77,16.91,36.88,30.46,56.97,36.98,15.64,5.08,30.8,5.61,47.21,6.2,39.88,1.44,74.54-1.57,109.34-21.83,12.5-7.28,23.57-15.53,31.03-28.6,16.75-29.33,22.24-57.46,22.02-90.78ZM399.93,330.56c-1.57-3.38-4.63-7.87-6.96-10.93-2.06-2.71-8.09-10.42-10.36-12.29-.8-.66-7.2-3.04-8.41-3.28-1.52-.3-3.74.08-4.81-.44-1.66-.81-.65-5.64-5.14-7.26-.86-.31-3.51-.44-3.82-.71-.92-.81-1.08-4.31-4.84-6.37-1.58-.87-10.33-4.15-11.94-4.31-1.71-.18-3.14.85-4.32.56-4.28-1.08-6.62-5.03-9.98-6.73-6.58-3.33-9.74-1.74-16.01-2.1-1.89-.11-3.34-1.14-5.23-1.01-1.99.14-4.42,2.43-5.74,2.41-.71-.01-7.63-6.39-10.12-7.03-1.86-.48-6.75-.19-8.94-.11-9.32.32-24.26,2.11-32.34,6.77-2.63,1.52-4.76,3.99-7.04,5.36-5.06,3.04-16.53-.19-23.48,3.7-5.08,2.84-8.13,8.33-13.57,10.75-1.7.76-3.83.88-5.34,1.82-.96.6-12.74,11.95-13.62,13.09-1.72,2.21-2.29,7.14-3.71,8.45-.86.79-2.76.99-3.83,1.65-7.55,4.64-12.12,14.6-15.57,22.34-.6,1.34-3.34,5.73-3.34,6.92v9.06c0,.18-1.62,2.69-1.91,3.1-2.6,3.68-6.44,7.07-7.52,11.8-3.37,14.81-3.76,48.28-.96,63.22.49,2.6,3.38,4.47,3.69,6.34.48,2.87-1.51,2.36-1.85,3.39-.46,1.4,1.53,5.72,2.26,7.16,1.04,2.04,6.76,9.97,6.76,11.37v7.15c0,.68,1.17,2.05,1.43,2.62,1.66,3.65,5.17,7.65,6.31,11.1.59,1.8.5,3.78,1.09,5.59,1.26,3.88,7.54,8.73,10.49,11.92,2.1,2.26,4.37,6.28,6.67,8.12,4.29,3.41,26.46,14.09,31.69,15.05,1.68.31,4.02-.1,5.26.46.65.3,1.6,1.74,2.44,2.33,3.33,2.36,13.86,2.45,18.65,3.28,6.14,1.06,13.51,3.94,19.26,4.58,4.19.47,8.83.04,13.25.58,3.97.48,10.5,2.78,13.96,2.79,2.66,0,5.54-4.68,9.84-3.7,1.07.24,1.79,1.31,2.7,1.59,2.24.69,23.66-1.63,27.3-2.31s8.72-3.48,11.17-3.67c1.98-.15,2.49,1.59,4.65,1.41,4.37-.36,12.94-5.96,17.29-8.03,3.54-1.68,12.21-4.45,14.73-6.25,1.79-1.27,3.4-5.54,5-7.4,1.08-1.25,2.74-1.96,3.55-3.13.69-1,.77-2.53,1.46-3.31.81-.92,2.28-.88,3.25-1.52,6.14-4.05,12.55-13.37,15.82-19.95,1.5-3.03,1.08-4.18,1.92-6.67,1-2.99,6.17-8.08,7.74-11.81,2.85-6.76,1.12-14.98,2.06-21.79.36-2.63,2.52-7.03,3.3-10.3,1.47-6.23,0-6.43,0-11.21v-27.19c0-1.22-1.15-3.76-1.43-5.01-.62-2.81-1.19-5.87-2.16-8.58-.27-.74-2.37-5.64-2.58-5.89-.8-.95-2.84-.09-3.16-1.72-.27-1.38,1.09-4.58,1.24-6.45.73-9.14-3.87-13.78-7.18-21.47-2.14-4.97-3.14-11.04-6.21-15.25-.64-.88-1.69-2.51-2.84-2.64Z"/>
  <path class="cls-7" d="M164.83,344.87c3.45-7.74,8.02-17.71,15.57-22.34,1.08-.66,2.97-.86,3.83-1.65,1.42-1.31,1.99-6.24,3.71-8.45.88-1.13,12.66-12.49,13.62-13.09,1.51-.94,3.63-1.06,5.34-1.82,5.45-2.42,8.5-7.91,13.57-10.75,6.95-3.89,18.42-.66,23.48-3.7,2.28-1.37,4.41-3.84,7.04-5.36,8.08-4.66,23.02-6.44,32.34-6.77,2.19-.08,7.08-.36,8.94.11,2.49.64,9.41,7.01,10.12,7.03,1.32.03,3.75-2.26,5.74-2.41,1.89-.13,3.33.9,5.23,1.01,6.27.36,9.43-1.23,16.01,2.1,3.36,1.7,5.7,5.65,9.98,6.73,1.18.3,2.61-.73,4.32-.56,1.61.17,10.36,3.44,11.94,4.31,3.76,2.06,3.91,5.56,4.84,6.37.31.28,2.96.4,3.82.71,4.5,1.61,3.48,6.44,5.14,7.26,1.07.52,3.29.14,4.81.44,1.21.24,7.61,2.62,8.41,3.28,2.27,1.87,8.3,9.58,10.36,12.29,2.32,3.06,5.39,7.55,6.96,10.93,3.16,6.8,4.58,14.73,7.3,21.56,2.26,5.69,6.51,6.52,4.32,14.64-.3,1.12-.98,1.04-1.11,1.35-2.2,5.09-2.33,9.21,1.65,13.5,1.03,1.12,2.35,1.73,3.37,2.83,2.5,2.7,4.59,5.72,7.37,8.13.28,1.25,1.43,3.79,1.43,5.01v27.19c0,4.78,1.47,4.98,0,11.21-1.5.27-3.33,1.8-4.44,2.85-.43.4-.27,1.08-.47,1.27-2.23,2.17-4.79,3.02-5.12,6.59-.39,4.22.95,12.67-.58,16.11-1,2.24-4.08,3.2-5.83,4.66-4.59,3.8-4.38,11.41-7.08,16.3-.69,1.26-4.22,5.43-5.43,6.02-3.72,1.81-10.56-.58-13.81,3.12-3.78,4.3-4.43,11.68-6.02,16.64-2.04,6.37-8.17,3.49-12.81,6.16-1.88,1.08-4.4,5.02-6.48,5.56-3.39.88-6.48-.02-10.61,1.79s-10.08,7.99-14.21,9.73c-1.98.83-13.05.84-15.27.2-3.59-1.03-6.2-7.3-9.84-7.81-3.84-.53-11.7,1.65-15.21,3.43-5.6,2.83-4.43,6.42-12.34,3.62-3.07-1.08-9.49-2.99-11.83-4.38-6.23-3.7-3.9-6.77-13.42-4.89-4.25.84-10.3,3.59-14,4.13-1.19.17-2.32.04-3.46-.29-3-.89-7.26-5.36-10.08-6.13-6.26-1.73-10.29,1.18-14.63-5.88-1.2-1.96-1.64-5.7-3.25-6.76-1.74-1.15-6.01-1.01-8.37-1.64-4.61-1.22-7.66-4.62-11.65-6.95-2.82-1.64-6.05-1.36-7.09-5.31-1.41-5.34.33-8.38-5.45-11.72-.61-.35-1.5-.36-2.15-.72-3.09-1.71-6.48-3.95-9.9-4.64-.26-.57-1.43-1.95-1.43-2.62v-7.15c0-1.4-5.72-9.33-6.76-11.37-.73-1.43-2.72-5.76-2.26-7.16.34-1.03,2.33-.52,1.85-3.39-.31-1.87-3.21-3.74-3.69-6.34-2.8-14.94-2.42-48.41.96-63.22,1.08-4.73,4.92-8.12,7.52-11.8,4.93-1.23,7.08-5.35,6.19-10.25l-.95-8.83ZM291.04,288.17c-1.21.4-2.24,3.15.4,3.31,3.51.21,2.73-4.35-.4-3.31ZM319.4,291.03c-1.1,1.76,1.38,4.04,2.59,2.35,1.31-1.84-1.72-3.73-2.59-2.35ZM243.5,291.46c-.75-1.04-4.95-.34-3.11,2.39,1.29,1.91,3.9-1.31,3.11-2.39ZM282.07,294.37c-2.34-1.48-4.12,2.43-1.83,3.54,2.07,1,2.94-2.84,1.83-3.54ZM214.42,328.17c-2.16-1.27-4.23,1.27-5.69,2.77-1.83,1.88-3.68,5.01-5.44,6.61s-6.96,3.86-7.96,5.16c-1.63,2.11-2.65,11.59-2.85,14.56-1.72,1.99-4.38,4.83-4.73,7.44-.26,1.97.26,3.97-.26,5.94-.36,1.37-2.18,3.71-2.87,5.24-.95,2.11-4.37,9.08-4.54,10.77-.24,2.43,2.52,4.59,2.4,6.12-.07.9-2.34,3.59-2.96,4.72-3.57,6.53-1.64,16.14-2.31,23.45-.44,4.75-2.9,8.44-1.89,13.83.52,2.74,3.37,1.56,3.77-.97.59-3.74-.25-8.89.01-12.87.2-3.11,1.19-6.74,1.44-10,.23-2.92-.44-6.69.11-9.43.35-1.72,4-7.15,5.14-9.41.17-.33,1.07-.56,1.33-1.77.52-2.41-.33-5.11.42-7.69.67-2.29,3.71-5,4.25-7.2.29-1.19.03-2.44.31-3.5,1.08-3.96,2.88-8.07,3.23-12.28.27-.29,2.74-3.61,2.86-3.82,1.1.99.82.39,1.18-.48.83-2.04,1.53-4.69,2.85-6.49,1.21-1.65,5.14-3.31,6.72-4.95,1.12-1.15,3.21-4.14,3.56-5.74,1.2-.65,5.48-2.49,5.72-3.59.21-1-1.11-1.28-1.9-1.18-.08-.37.12-1.26,0-1.43,2.76-.59,4.35-3.5,6.45-5.23,5.6-4.61,12.89-8.74,19.66-11.34,4.69-1.8,19.11-3.63,15.97-10.97-1.81-4.24-12.51-2.14-16.1-1.08-9.75,2.87-18.26,10.27-23.99,18.46-.89,1.27-3.67,5.14-3.9,6.35ZM326.85,302.06c-6.96,1.02-5.59,7.42.34,9.9,9.95,4.17,16.91,5.02,26.42,11.73,2.05,1.44,9.71,8.84,11.06,8.55,4.75-.98-1.68-9.66-3.18-11.67-7.31-9.8-21.78-20.41-34.65-18.52ZM257.82,315.29c-.28,1.43.69.86,1.58,1.02,2.29.42,9.77,2.25,11.44,1.75s1.38-3.64,1.89-5.28c.36-1.16,1.46-1.89,1.31-3.22,1.12-.62,3.45-2.32,4.52-2.34,1.64-.03,11.54,4.8,12.14,1.09.34-2.14-2.78-1.14-3.45-1.23-2.4-.31-5.16-3.66-8.64-3.24-1.38.17-7.06,3.32-8.71,4.2s-3.04,2.5-4.58,3.05c-1.93.7-12.28,1.45-12.75,3.47-.4,1.77,4.03.81,5.24.71ZM294.65,306.35c-.83.8-.46,2.75.68,3.15,1.5.52,5.46-.1,7.5.13,2.99.33,6.47,1.81,9.65,2.28,1.69.25,3.57-.2,5.16.09,1.44.26,3.6,2.66,4.99.64,1.23-3.73-7.79-3.29-9.61-3.65-3.57-.69-15.78-5.12-18.36-2.62ZM378.88,315.35c-.51-.32-2.05.07-2.8-.06v2.87c2.48,1.28,4.28-1.89,2.8-2.8ZM204.82,317.27c-.17-.27-1.58-.54-2.04-.51-4.06.22-.57,6.46,1.68,3.59.47-.6.71-2.52.36-3.07ZM263.84,323.94c-1.54.52-.8,3.82.8,3.68,2.63-.22,2.51-4.8-.8-3.68ZM210.61,363.47c-.04.15.03.33,0,.48,0,.03-.39.09-.48.48-.15.68.14,1.69,0,2.38,0,.03-.39.09-.48.48-.12.53.09,1.32,0,1.91-1.77-.09-8.89-1.65-9.09.72-.21,2.49,6.65,3.68,8.62,4.52v.48c.7,1.57.32,3.21.48,4.77.32,3.3.57,6.28,1.43,9.54-1.74-.18-.57,1.99-1.57,3.21-.17.21-2.34,1.54-2.77,1.76-1.33.67-5.96,1.18-4.62,3.53.14.24,3.69,3.12,4.31,3.58.9.67,2.11,1.48,3.22,1.76-.01,3.17.01,6.37,0,9.54-1.51.09-4.05.71-5.72.95-5.2.75-10.47,1.72-14.03,6.24-6.35,8.07-.24,13.86,7.35,16.65,3.77,1.39,9.87,2.86,13.83,2.86-.14,2.26.2,4.69,0,6.92-.14,1.68-1.17,2.89-.95,4.72.26,2.17,3.9,5.85,2.63,7.92-.6.97-2.3.4-2.17,1.64.3,2.82,3.55,3.58,2.02,8.72-.67,2.25-4.58,4.74-.71,5.74,1.17.3,5.87.41,6.26.65.23.14,1.06,3.87,1.95,4.84.94,1.04,3.38,1.29,4.33,2.47.81,1.01.98,3.78,1.88,4.35s2.26-1.16,3.35-.76c.09.63.37,3.66.5,3.79.85.82,6.32-1.07,7.8-.92.41.04,6.91,3.27,7.4,3.6,1.97,1.37,1.57,5.83,3.21,6.36s6.77-5.19,8.2-1.55c.56,1.42-1.47.89-.88,2.31.18.44.7.68,1.18.73,3.62.37,10.45-3.48,13.81-2.87,1.71.31,5.18,6.42,6.63,6.16.58-.1,2.47-2.65,3.47-3.23.6-.35,5.15-1.94,5.69-1.98,2.05-.14,6.41,3.17,8.57,3.32,2.67.18,8.58-2.25,12.37-1.91,2.08.18,4.62,2.92,6.13,2.79s2.87-2.78,4.25-3.35c4.33-1.79,1.95,1.33,2.46,2.04,1.56,2.15,6.84-2.22,8.1-3.4.67-.62.98-1.79,1.76-2.53.68-.65,9.55-5.56,10.43-5.78,1.41-.36,2.69-.04,3.97-.32,2.56-.56,3.95-5.36,5.81-7.06,2.07-1.89,8.57-3.89,9.22-7.02.21-1.03-1.33-4.44-1.35-6.11-.02-1.51,1.71-9.35,2.63-10.24.72-.7,2.58-.77,3.58-.95-.64-3.58-3.26-5.4-2.82-9.25s2.42-6.84,6.64-6.01c.26-1.8-1.89-2.42-1.91-4.29,8.77.29,26.53-2.81,24.68-14.91-.34-2.23-1.07-2.09-1.97-3.28-2.85-3.78-8.23-6.61-13.18-7.09-3.67-1.71-7.95-.61-11.85-1.02-1.08-2.22.66-4.82-1.03-7.09,5.62-7.07,8.35-17,9.54-25.76.23-1.67.77-3.31.53-5.2.19-.22,3.58-.76,4.24-1-.34,1.4-.19,4.05.1,5.38.45,2.04,5.24,9.58,6.8,11.32,1.01,1.12,2.42,2.96,4.06,2.86.48,1.78.76,3.74,1.48,5.43.88,2.08,5.41,7.61,5.59,8.74.2,1.26-1.35,3.97-1.35,5.14v10.97c0,1.27.42,3.73.48,5.49,0,.12,0,.35,0,.48-.01.63.03,1.27,0,1.91,0,.19,0,.45,0,.48-.04.39.09,1.31,0,1.43-.03.04-.83-.19-.96.31-.55,2.08.23,7.19-.04,9.89-.32,3.11-2.49,5.51-2.38,8.16.19,4.47,3.54,1.33,4.67-1.1.84-1.83,4.83-12.35,4.87-13.73.04-1.47-1.47-6.49-3.29-6.87-.38-3.25-.58-6-.5-9.32.17-7.19,2.67-12.67-1.21-19.26-.78-1.33-4.28-5.22-4.4-5.62-.45-1.55-.27-4.6-.57-6.34.71-1.8.7-5.04.49-6.93-.45-3.99-5.42-5.64-9.07-5.47-.75-1.68-1.51-3.5-.48-5.25.14-.07.59.14.85-.08,1.24-1,.22-2.5-1.33-2.79.2-2.4.4-4.74.48-7.15.02-.68.12-.37,0-1.43-.05-.44.11-1.11,0-1.43,1.09.29,1.38-.93,1.36-1.66-.09-3.07-5.21-5.85-6.6-8.6-4.83-1.2-3.18,1.91-2.56,4.86.4,1.89,1.36,3.14,1.57,4.72.41,3.01-.5,7.19,0,9.95.11.6,1.71-.03,1.94.75-1.4.06-2.78.81-4.23.42-.73-1.47-.69-3.22-1.01-4.71-1.18-5.37-2.4-9.43-5-14.32-13.53-25.49-43.3-28.41-60.53-4.72-.51.7-2.66,4.72-2.97,4.77-2.43.4-3.88-3.59-4.94-4.12-1.15-.57-2.66.46-2.86.26-.15-.15.09-2.32-1.58-2.29-.61,0-4.61,1.83-5.35,2.28-1.51.91-3.26,3.23-4.49,3.62-1.74.54-3.73-.19-5.47.7-9.73-17.78-29.34-27.82-48.4-16.91-11.03,6.31-17.13,17.83-20.07,29.77ZM182.83,331.19c-.32-.33-3-1.55-3.49-1.59-3.37-.22-5.69,3.92-5.48,6.92.1,1.33,1.09.41,1.41.73s-.2,2.54.07,2.82c.15.15,3.79.99,4,.97.18-.01,3.42-.88,3.55-1.01.22-.22.06-1.9.49-2.53.39-.58,1.42,0,1.49-.52.06-.47-.59-3.35-.82-3.94-.17-.45-.72-.49-.93-.78s-.12-.9-.3-1.08ZM392.9,340.9c3.31,1.06,3.52-2.5,1.78-3.42-2.52-1.34-3.67,2.82-1.78,3.42ZM170.38,353.03c-1.24.42-1.22,3.19.42,3.32,2.86.22,3.02-4.48-.42-3.32ZM405.1,366.26c1.12-1.76-1.59-4.66-3.05-2.33s2.19,3.68,3.05,2.33ZM179.14,370.62c1.13-5.83-5.73-2.85-2.67-.43.77.61,1.78.44,2.67.43ZM160.83,387.83c-1.96.64-.45,4.86,2.12,3.09,1.35-.94-.1-3.75-2.12-3.09ZM416.55,406.94c-1.63-1.02-3.58.79-2.74,2.74,1.1.63,2.11.22,3.26.04.23-.25-.25-2.61-.52-2.78ZM411.91,429.84c-1.43.89-.17,4.84,2.35,3.06,1.62-1.14-.25-4.37-2.35-3.06ZM198.17,451.76c-1.73-1.21-3.4,2.03-1.89,3.08,2.37,1.66,2.83-2.43,1.89-3.08ZM383.24,459.34c1.03-2.91-2.55-3.97-3.58-1.91-1.4,2.81,1.57,1.77,3.58,1.91ZM373.15,475.49c2.69-1.68-3.66-6.42-2.79.07.75-.12,2.27.26,2.79-.07ZM194.33,490.89c-.87-1.39-3.9.51-2.59,2.35,1.21,1.69,3.69-.59,2.59-2.35Z"/>
  <path class="cls-3" d="M445.23,413.55c.22,33.32-5.27,61.45-22.02,90.78-7.46,13.07-18.53,21.32-31.03,28.6-34.8,20.25-69.46,23.27-109.34,21.83-16.4-.59-31.56-1.13-47.21-6.2-20.09-6.52-44.19-20.07-56.97-36.98-2.51-3.33-2.55-1.94-3.34-6.44-.51-.11-1.27.23-1.79-.11-.21-.14-2.52-3.47-2.88-4.04-1.55-2.48-2.5-5.25-3.7-7.74s-3.48-5.15-3.54-8.14l4.51,4.79c-.2,2.17,1.47,2.83,2.03,4.17.61,1.44,1.36,5.66,2,6.47.35.45,1.19.32,1.67.81,1.37,1.39,1.41,2.09,1.71,3.8,2.88.61,3.17,1.44,5.17,3.64,9.24,10.18,11.28,11.92,24.3,17.69,22.16,9.82,48.17,15.24,72.34,17.79,4.44.47,10.56,2.02,14.78,1.94,2.39-.04,5.9-1.27,8.59-1.46,10.07-.72,20.54.52,30.49-1.94,2.91-.72,6.42-2.65,9.13-3.27,4.88-1.12,9.34.04,14.49-1.72,7.61-2.6,15.45-7.57,22.29-11.19,7.74-4.1,5.64-5.12,10.63-10.31.59-.61,1.18-.26,1.3-.38,14.58-13.76,21.24-22.58,29.33-40.96,1.33-3.02,3.92-6.32,4.64-9.27,1.04-4.28.78-14.26,2.87-17.32,1.74-2.54,6.09-6.04,8.31-9.09,5.82-7.98,8.09-16.53,11.24-25.73Z"/>
  <path class="cls-13" d="M424.25,435.97c-.77,3.27-2.93,7.67-3.3,10.3-.94,6.81.79,15.03-2.06,21.79-1.57,3.73-6.74,8.82-7.74,11.81-.84,2.49-.41,3.64-1.92,6.67-3.27,6.58-9.69,15.9-15.82,19.95-.97.64-2.44.6-3.25,1.52-.69.78-.77,2.31-1.46,3.31-.81,1.17-2.47,1.88-3.55,3.13-1.6,1.85-3.22,6.12-5,7.4-2.52,1.8-11.19,4.58-14.73,6.25-4.35,2.06-12.92,7.66-17.29,8.03-2.15.18-2.67-1.56-4.65-1.41-2.45.18-7.61,3.01-11.17,3.67s-25.06,3-27.3,2.31c-.91-.28-1.63-1.35-2.7-1.59-4.31-.98-7.18,3.7-9.84,3.7-3.45,0-9.99-2.3-13.96-2.79-4.42-.54-9.05-.12-13.25-.58-5.75-.64-13.12-3.52-19.26-4.58-4.8-.83-15.33-.92-18.65-3.28-.83-.59-1.79-2.04-2.44-2.33-1.24-.56-3.58-.16-5.26-.46-5.22-.96-27.4-11.64-31.69-15.05-2.3-1.83-4.57-5.85-6.67-8.12-2.96-3.19-9.24-8.05-10.49-11.92-.59-1.81-.5-3.79-1.09-5.59-1.14-3.46-4.64-7.46-6.31-11.1,3.42.69,6.81,2.94,9.9,4.64.64.35,1.54.36,2.15.72,5.78,3.35,4.03,6.38,5.45,11.72,1.04,3.95,4.27,3.67,7.09,5.31,3.99,2.32,7.04,5.73,11.65,6.95,2.37.63,6.64.49,8.37,1.64,1.61,1.07,2.05,4.81,3.25,6.76,4.34,7.06,8.37,4.15,14.63,5.88,2.82.78,7.08,5.25,10.08,6.13,1.14.34,2.28.46,3.46.29,3.7-.53,9.75-3.28,14-4.13,9.52-1.88,7.19,1.19,13.42,4.89,2.35,1.4,8.76,3.3,11.83,4.38,7.91,2.79,6.74-.79,12.34-3.62,3.51-1.77,11.37-3.96,15.21-3.43,3.63.51,6.25,6.77,9.84,7.81,2.22.64,13.29.63,15.27-.2,4.14-1.74,10-7.88,14.21-9.73s7.22-.91,10.61-1.79c2.08-.54,4.6-4.47,6.48-5.56,4.64-2.67,10.77.21,12.81-6.16,1.58-4.96,2.24-12.34,6.02-16.64,3.25-3.7,10.09-1.31,13.81-3.12,1.21-.59,4.74-4.76,5.43-6.02,2.7-4.89,2.49-12.49,7.08-16.3,1.75-1.45,4.83-2.42,5.83-4.66,1.53-3.44.19-11.89.58-16.11.33-3.57,2.89-4.42,5.12-6.59.2-.19.05-.87.47-1.27,1.11-1.05,2.94-2.57,4.44-2.85Z"/>
  <path class="cls-14" d="M445.23,413.55c-3.14,9.2-5.42,17.74-11.24,25.73-2.22,3.05-6.57,6.55-8.31,9.09-.9-.45-.3-1.61-.17-2.31,3.29-17.46,5.4-43.98-.17-61.02-.84-2.57-3.48-5.68-3.84-7.61-.96-5.24-.23-10.46-1.89-16.24-1.1-3.84-9.5-23.85-11.46-26.71-1.23-1.79-3.66-3.91-5.08-5.87-4.34-5.98-13.38-20.74-19.49-23.91-1.62-.84-3.43-.88-5.26-1.89-5.41-2.99-10.76-9.04-15.83-12.78-10.47-7.71-26.26-10.3-37.89-16.41-5.02.55-9.88-1.7-14.97-1.32l-9.36-2.32c7.68.19,15.44-.5,23.06.54,14.84,2.02,36.75,9.77,50.05,16.72,42.86,22.39,63.55,59.31,71.23,106.19,1.13,6.89.58,13.3.63,20.12Z"/>
  <path class="cls-13" d="M399.93,330.56c1.15.13,2.2,1.76,2.84,2.64,3.07,4.22,4.07,10.28,6.21,15.25,3.31,7.7,7.9,12.34,7.18,21.47-.15,1.88-1.51,5.07-1.24,6.45.32,1.64,2.36.77,3.16,1.72.21.25,2.31,5.14,2.58,5.89.97,2.71,1.53,5.76,2.16,8.58-2.79-2.4-4.87-5.42-7.37-8.13-1.02-1.1-2.33-1.72-3.37-2.83-3.97-4.29-3.85-8.4-1.65-13.5.13-.3.81-.23,1.11-1.35,2.2-8.13-2.06-8.95-4.32-14.64-2.71-6.83-4.14-14.75-7.3-21.56Z"/>
  <path class="cls-13" d="M159.59,363.95c.29-.41,1.91-2.92,1.91-3.1v-9.06c0-1.19,2.74-5.58,3.34-6.92l.95,8.83c.89,4.9-1.27,9.02-6.19,10.25Z"/>
  <path class="cls-15" d="M173.41,279.04c.45.02,1.83-.08,1.91,0,.11.12-.05,2.25,0,2.86l-1.9-2.23v-.63Z"/>
  <path class="cls-15" d="M171.51,278.57c.37-.02,1.68-1.47,1.43.48-.53-.03-1.19.15-1.43-.48Z"/>
  <path class="cls-1" d="M281.66,357.27l.46-.27c0,.36-.12.73.28.78,3.86.45,8.79-.06,12.8.5l4.58,1.85c-6.55,24.48,3.05,50.41,27.66,59.15.05.02.18.64.8.85,4.6,1.53,10.03,1.12,14.61.09.18-.04,1.24-1.83,3.19-.94.43,1.27-.86,2.05-.92,2.26-.31,1.07-.86,3.56-.99,4.66-.16,1.3-.56,3.14,1.43,2.63,1.47,4.92,10.66,8.65,15.26,9.54-1.97,8.51-8.94,15.16-15.51,20.5-24.63,20.01-51.32,22.01-81.88,16.58-20.29-3.6-40.5-16.86-48.05-36.6,7.82-.87,24.17-7.09,17.38-17.63-4.07-6.32-16.09-9.02-23.11-8.61.01-3.17-.01-6.37,0-9.54.02-4.01-.35-7.61.96-11.45l1.43.96c7.4,21.32,29,35.16,50.56,23.14,19.85-11.07,26.11-37.84,19.07-58.44ZM305.34,420.4c-8.21-8.96-31.07-8.97-34.88,4.13-3.49,11.98,11.64,18.31,21.45,17.64,11.06-.76,23.11-11.2,13.43-21.76Z"/>
  <path class="cls-5" d="M210.61,363.47c2.94-11.94,9.04-23.46,20.07-29.77,19.06-10.91,38.67-.87,48.4,16.91,1.74-.89,3.73-.16,5.47-.7,1.23-.38,2.98-2.71,4.49-3.62.74-.45,4.75-2.27,5.35-2.28,1.67-.02,1.43,2.14,1.58,2.29.2.2,1.7-.84,2.86-.26,1.06.53,2.51,4.51,4.94,4.12.31-.05,2.46-4.06,2.97-4.77,17.23-23.69,46.99-20.77,60.53,4.72,2.6,4.89,3.81,8.95,5,14.32-2.96-.61.1,3-2.86,2.38-1.16-7.78-3.37-12.38-7.63-18.6-8.13-11.88-18.32-18.38-33.38-14.79-1.91.46-3.07,1.1-4.77,1.91-1.15.54-1.47.88-2.38,1.43-1.72,1.05-4.48,2.09-5.25,4.29-.15,0-.33-.03-.48,0-2.28.48-8.19,10.45-9.28,12.89-9,20.14-4.12,52.3,18.7,60.92,24.2,9.15,42.99-13.38,44.95-35.66l2.86.48c-1.19,8.76-3.91,18.68-9.54,25.76-1.6,2.01-7.39,7.29-9.57,8.79-7.21,4.97-17.7,7.21-26.2,5.04-24.6-8.74-34.21-34.66-27.66-59.15.62-2.3,2.13-5.26,2.86-7.63l-22.41.95c-.26.23,1.21,3.18,1.43,3.81,7.04,20.6.79,47.37-19.07,58.44-21.55,12.02-43.16-1.82-50.56-23.14-.34-.99-.68-2.3-.95-3.34-.86-3.26-1.11-6.24-1.43-9.54l1.31-1.29,2.51-4.91c-.46,23.89,18.08,51.63,44.82,41.25,28-10.87,30.49-56.13,8.59-74.64-11.57-9.78-26.43-10.35-38.15-.48-2.98,2.51-4.48,4.47-6.68,7.63-1.41,2.03-2.18,3.79-3.34,6.2-2.71,5.66-3.96,9.25-4.77,15.74-3.5.55-.63-5.53-3.34-5.72Z"/>
  <path class="cls-5" d="M366.54,438.83c.01,1.87,2.17,2.5,1.91,4.29-4.21-.84-6.2,2.23-6.64,6.01s2.18,5.68,2.82,9.25c-1,.18-2.86.26-3.58.95-.92.89-2.65,8.72-2.63,10.24.03,1.67,1.57,5.08,1.35,6.11-.65,3.13-7.15,5.13-9.22,7.02-1.87,1.7-3.25,6.5-5.81,7.06-1.28.28-2.56-.03-3.97.32-.88.22-9.75,5.13-10.43,5.78-.78.75-1.09,1.91-1.76,2.53-1.25,1.17-6.54,5.55-8.1,3.4-.52-.71,1.86-3.83-2.46-2.04-1.38.57-2.75,3.22-4.25,3.35s-4.04-2.61-6.13-2.79c-3.79-.33-9.71,2.1-12.37,1.91-2.16-.15-6.52-3.46-8.57-3.32-.54.04-5.09,1.63-5.69,1.98-1.01.58-2.89,3.13-3.47,3.23-1.45.25-4.92-5.85-6.63-6.16-3.37-.61-10.2,3.24-13.81,2.87-.48-.05-1-.29-1.18-.73-.59-1.42,1.45-.88.88-2.31-1.44-3.64-6.49,2.1-8.2,1.55s-1.23-4.99-3.21-6.36c-.49-.34-6.99-3.56-7.4-3.6-1.49-.15-6.95,1.74-7.8.92-.14-.13-.42-3.16-.5-3.79-1.09-.41-2.47,1.31-3.35.76s-1.06-3.34-1.88-4.35c-.96-1.18-3.39-1.44-4.33-2.47-.88-.97-1.72-4.7-1.95-4.84-.4-.24-5.1-.35-6.26-.65-3.88-1.01.04-3.49.71-5.74,1.53-5.14-1.71-5.9-2.02-8.72-.13-1.24,1.57-.67,2.17-1.64,1.28-2.07-2.36-5.75-2.63-7.92-.22-1.83.8-3.05.95-4.72.19-2.23-.14-4.66,0-6.92.56,0,3.31-.37,4.29-.48,7.56,19.74,27.76,32.99,48.05,36.6,30.56,5.43,57.24,3.44,81.88-16.58,6.57-5.34,13.54-11.99,15.51-20.5,1.74.34,3.93.42,5.72.48ZM216.33,456.96c-.15,2.48.88,4.76,1.43,7.15,1.18,5.12,1.17,8.76,5.22,12.66,3.45,3.32,8.33,4.36,12.42,6.42,6.78,3.41,13.02,7.29,20.41,9.4,10.73,3.06,23.48,4.33,34.65,4.93,4.9.26,14.08.92,18.61.45s17.42-5.08,22.66-6.67c2.99-.91,6.25-1.7,9.05-3.11,5.34-2.7,12.71-12.35,14.35-18.1.56-1.95.17-4.56.5-6.63.6-3.75,1.76-7.43,1.84-11.27-3.34,3.01-5.63,6.76-9.05,9.78-2.22,1.97-4.69,3.4-7.16,5-3.25,2.11-6.99,4.59-10.49,6.2-20.75,9.52-46.7,11.38-68.77,6.06-6.44-1.55-11.92-4.17-18.02-6.06-11.86-5.87-21.68-14.23-28.37-25.75-1.53,2.37-.51,7.23.72,9.53Z"/>
  <path class="cls-2" d="M376.08,413.55c4.95.48,10.33,3.31,13.18,7.09.89,1.18,1.63,1.05,1.97,3.28,1.85,12.1-15.91,15.21-24.68,14.91-1.8-.06-3.98-.14-5.72-.48-4.6-.89-13.79-4.62-15.26-9.54-1.87-6.27,3.83-10.93,8.96-13.22,6.28-2.8,14.77-2.71,21.56-2.05Z"/>
  <path class="cls-2" d="M215.38,438.83c-.99.11-3.73.48-4.29.48-3.96,0-10.06-1.47-13.83-2.86-.18-1.4-1.56-2.26-2.86-1.91l.49-.95c-1.49.54-1.99-1.62-2.78-1.89-.45-.15-1.38.09-1.52-.03-.23-.2.23-2.4,0-2.86-.04-.08-1.49.5-1.87-.04-.15-.22-.15-4.74-.02-5.34.05-.24,2.66-3.76,3.02-3.99s.84-.2,1.26-.17l-.49-.95c1.55.61,1.85-.7,2.07-.79,1.76-.81,5.77-2.75,6.84-3.02.98-.25,2.83.73,2.54-.96,1.67-.24,4.21-.87,5.72-.95,7.01-.41,19.04,2.29,23.11,8.61,6.79,10.54-9.57,16.76-17.38,17.63Z"/>
  <path class="cls-12" d="M216.33,331.99c-.47-.66-2.62-.15-1.91-3.82.24-1.21,3.01-5.08,3.9-6.35,5.73-8.19,14.23-15.59,23.99-18.46,3.58-1.05,14.28-3.15,16.1,1.08,3.14,7.34-11.28,9.17-15.97,10.97-6.77,2.6-14.06,6.73-19.66,11.34-2.1,1.73-3.69,4.64-6.45,5.23Z"/>
  <path class="cls-12" d="M326.85,302.06c12.87-1.89,27.33,8.72,34.65,18.52,1.5,2.01,7.93,10.69,3.18,11.67-1.36.28-9.01-7.11-11.06-8.55-9.52-6.71-16.47-7.56-26.42-11.73-5.93-2.48-7.3-8.88-.34-9.9Z"/>
  <path class="cls-5" d="M192.49,357.27c.8-.92,3.03-2.26,3.55-3.36.76-1.59.49-5.87,2.5-6.57.34-.12,1.49-.18,1.58-.09.46.45-1.39,7.71-1.91,8.59-.12.21-2.59,3.53-2.86,3.82-.08.09-.9.09-1.43.69-3.69,4.23-3.21,8.64-4.88,13.74-1.35,4.13-3.69,8.23-5.53,12.16-.38,2.21,2.12,3.62,2.31,5.84-1.14,2.26-4.79,7.69-5.14,9.41-.56,2.73.11,6.5-.11,9.43-.25,3.26-1.24,6.89-1.44,10-.26,3.98.58,9.12-.01,12.87-.4,2.53-3.26,3.71-3.77.97-1.01-5.38,1.45-9.07,1.89-13.83.67-7.31-1.26-16.91,2.31-23.45.62-1.13,2.88-3.82,2.96-4.72.13-1.53-2.64-3.69-2.4-6.12.17-1.69,3.59-8.66,4.54-10.77.69-1.53,2.51-3.87,2.87-5.24.52-1.96,0-3.97.26-5.94.35-2.61,3.01-5.45,4.73-7.44Z"/>
  <path class="cls-5" d="M381.8,371.58c-1.04,1.75-.28,3.57.48,5.25.1.22-.23.62.29.99,1.43,1.03,4.59.8,6.14,2.83,1.06,1.4,1.81,6.55,2.16,8.58.3,1.74.12,4.79.57,6.34.12.4,3.62,4.29,4.4,5.62,3.88,6.59,1.38,12.07,1.21,19.26-.08,3.32.11,6.07.5,9.32.19,1.59.71,3.12.47,4.77-1.39.1-2.63-.15-3.34-1.43.09-.12-.04-1.04,0-1.43v-.48c.03-.63-.01-1.27,0-1.91v-.48c-.06-1.75-.48-4.22-.48-5.49v-10.97c0-1.18,1.55-3.89,1.35-5.14-.18-1.13-4.71-6.66-5.59-8.74-.72-1.69-1-3.65-1.48-5.43-.69-2.56-1.29-7.93-2.65-9.99-.97-1.47-4.9-2.52-5.84-4.17s-.44-4.42-.57-6.35c.73-.29,1.71-.61,2.38-.95Z"/>
  <path class="cls-13" d="M214.42,328.17c-.71,3.66,1.44,3.15,1.91,3.82.12.17-.08,1.06,0,1.43-1.09.13-10.11,4.17-10.97,5.01-.93.92-3.62,5.88-2.4,6.7,2.28,1.55,4.16-3.76,5.63-5.04,1.2-1.04,2.76-1.27,3.93-1.9-.35,1.6-2.44,4.59-3.56,5.74-1.58,1.64-5.52,3.3-6.72,4.95-1.31,1.79-2.02,4.45-2.85,6.49-.35.87-.07,1.47-1.18.48.51-.88,2.36-8.13,1.91-8.59-.09-.09-1.23-.03-1.58.09-2.01.7-1.74,4.98-2.5,6.57-.53,1.1-2.75,2.44-3.55,3.36.2-2.97,1.22-12.45,2.85-14.56,1-1.3,6.24-3.61,7.96-5.16s3.61-4.73,5.44-6.61c1.46-1.5,3.52-4.03,5.69-2.77Z"/>
  <path class="cls-5" d="M274.03,309.57c-1.76.97-6.78,4.95-7.51,5.13-1.71.44-6.48.4-8.71.59-1.21.1-5.65,1.06-5.24-.71.46-2.02,10.82-2.77,12.75-3.47,1.54-.56,3.01-2.21,4.58-3.05,1.65-.88,7.33-4.03,8.71-4.2,3.48-.42,6.25,2.93,8.64,3.24.67.09,3.79-.91,3.45,1.23-.6,3.72-10.5-1.11-12.14-1.09-1.07.02-3.4,1.71-4.52,2.34Z"/>
  <path class="cls-13" d="M397.54,429.77c1.82.38,3.33,5.4,3.29,6.87-.04,1.38-4.02,11.91-4.87,13.73-1.12,2.43-4.48,5.57-4.67,1.1-.11-2.65,2.06-5.06,2.38-8.16.27-2.71-.51-7.81.04-9.89.13-.5.93-.27.96-.31.71,1.28,1.94,1.53,3.34,1.43.24-1.65-.29-3.18-.47-4.77Z"/>
  <path class="cls-15" d="M363.21,405.44c1.68,2.26-.06,4.86,1.03,7.09,3.9.41,8.18-.69,11.85,1.02-6.78-.66-15.28-.75-21.56,2.05-5.13,2.29-10.83,6.94-8.96,13.22-1.99.51-1.59-1.33-1.43-2.63.13-1.1.68-3.59.99-4.66.06-.21,1.35-.98.92-2.26-1.94-.88-3.01.9-3.19.94-4.58,1.02-10.02,1.44-14.61-.09-.62-.21-.74-.83-.8-.85,8.5,2.17,18.99-.07,26.2-5.04,2.18-1.5,7.97-6.78,9.57-8.79Z"/>
  <path class="cls-5" d="M294.65,306.35c2.59-2.49,14.79,1.93,18.36,2.62,1.82.35,10.84-.08,9.61,3.65-1.39,2.02-3.55-.38-4.99-.64-1.59-.28-3.47.16-5.16-.09-3.18-.47-6.66-1.95-9.65-2.28-2.04-.22-6,.39-7.5-.13-1.14-.39-1.51-2.34-.68-3.15Z"/>
  <path class="cls-6" d="M182.83,331.19c.18.18.08.78.3,1.08s.76.32.93.78c.23.59.88,3.46.82,3.94-.07.52-1.09-.05-1.49.52-.43.63-.27,2.31-.49,2.53-.13.13-3.37,1-3.55,1.01-.21.01-3.85-.83-4-.97-.27-.28.26-2.48-.07-2.82s-1.31.6-1.41-.73c-.22-3.01,2.1-7.15,5.48-6.92.49.03,3.17,1.26,3.49,1.59Z"/>
  <path class="cls-13" d="M195.35,359.65c-.34,4.21-2.15,8.31-3.23,12.28-.29,1.06-.03,2.31-.31,3.5-.53,2.2-3.58,4.91-4.25,7.2-.75,2.58.1,5.28-.42,7.69-.26,1.21-1.16,1.43-1.33,1.77-.18-2.23-2.68-3.63-2.31-5.84,1.84-3.93,4.18-8.03,5.53-12.16,1.67-5.1,1.19-9.51,4.88-13.74.53-.61,1.35-.61,1.43-.69Z"/>
  <path class="cls-12" d="M372.27,364.42c.33,1.49.28,3.24,1.01,4.71,1.45.39,2.83-.35,4.23-.42.63-.03,1.28-.01,1.91,0s1.38-.1,1.91,0c1.56.29,2.57,1.78,1.33,2.79-.27.22-.72,0-.85.08-.67.35-1.65.66-2.38.95s-1.55.82-1.91.95c-.66.24-4.05.78-4.24,1,.24,1.89-.3,3.53-.53,5.2l-2.86-.48c.33-3.71.07-8.71-.48-12.4,2.96.61-.1-3,2.86-2.38Z"/>
  <path class="cls-13" d="M377.51,368.72c-.23-.78-1.83-.15-1.94-.75-.5-2.76.41-6.94,0-9.95-.22-1.58-1.17-2.83-1.57-4.72-.62-2.95-2.27-6.06,2.56-4.86,1.39,2.75,6.51,5.53,6.6,8.6.02.73-.27,1.95-1.36,1.66-.28-.88-3.01-5.6-3.58-5.72-2.69-.57.45,7.57.67,8.87.35,2.05.36,4.74.53,6.87-.63-.01-1.28-.03-1.91,0Z"/>
  <path class="cls-12" d="M210.61,363.47c2.71.2-.16,6.27,3.34,5.72-.19,1.52-.45,2.68-.48,4.29l-2.51,4.91-1.31,1.29c-.15-1.56.22-3.2-.48-4.77l.47-.24-.47-.24c-1.96-.84-8.83-2.03-8.62-4.52s7.33-.82,9.09-.72c.1-.59-.12-1.38,0-1.91l.48-.48c.14-.69-.15-1.7,0-2.38l.48-.48c.03-.15-.04-.33,0-.48Z"/>
  <path class="cls-13" d="M379.42,372.53c.13,1.92-.41,4.64.57,6.35s4.88,2.7,5.84,4.17c1.35,2.06,1.96,7.43,2.65,9.99-1.64.11-3.05-1.74-4.06-2.86-1.56-1.74-6.35-9.28-6.8-11.32-.29-1.33-.45-3.98-.1-5.38.36-.13,1.14-.65,1.91-.95Z"/>
  <path class="cls-5" d="M212.52,338.19c-1.16.63-2.73.86-3.93,1.9-1.47,1.28-3.35,6.59-5.63,5.04-1.22-.82,1.47-5.78,2.4-6.7.86-.84,9.88-4.88,10.97-5.01.79-.09,2.12.18,1.9,1.18-.23,1.1-4.51,2.94-5.72,3.59Z"/>
  <path class="cls-13" d="M211.09,389.23c.27,1.04.61,2.35.95,3.34l-1.43-.96c-1.3,3.84-.94,7.44-.96,11.45-1.1-.29-2.31-1.09-3.22-1.76-.62-.46-4.17-3.34-4.31-3.58-1.35-2.34,3.29-2.86,4.62-3.53.43-.22,2.6-1.55,2.77-1.76,1-1.22-.17-3.38,1.57-3.21Z"/>
  <path class="cls-13" d="M274.03,309.57c.15,1.33-.95,2.06-1.31,3.22-.51,1.63-.27,4.8-1.89,5.28s-9.15-1.33-11.44-1.75c-.89-.16-1.86.4-1.58-1.02,2.22-.19,7-.16,8.71-.59.72-.18,5.75-4.16,7.51-5.13Z"/>
  <path class="cls-8" d="M203.93,413.55c.3,1.7-1.55.72-2.54.96-1.07.27-5.08,2.2-6.84,3.02-.22.1-.52,1.41-2.07.79l.49.95c-.42-.03-.9-.06-1.26.17s-2.97,3.75-3.02,3.99c-.13.6-.14,5.12.02,5.34.37.54,1.82-.05,1.87.04.24.46-.22,2.66,0,2.86.13.12,1.06-.12,1.52.03.79.26,1.29,2.43,2.78,1.89l-.49.95c1.31-.34,2.68.51,2.86,1.91-7.59-2.8-13.7-8.58-7.35-16.65,3.56-4.52,8.83-5.49,14.03-6.24Z"/>
  <path class="cls-5" d="M381.8,358.7c.11.33-.05.99,0,1.43v1.43c-.07,2.42-.28,4.75-.48,7.15-.53-.1-1.31.01-1.91,0-.16-2.12-.18-4.82-.53-6.87-.22-1.3-3.37-9.44-.67-8.87.58.12,3.3,4.84,3.58,5.72Z"/>
  <path class="cls-13" d="M382.28,376.82c3.65-.17,8.62,1.48,9.07,5.47.21,1.89.22,5.13-.49,6.93-.35-2.03-1.1-7.18-2.16-8.58-1.54-2.04-4.71-1.81-6.14-2.83-.52-.38-.19-.77-.29-.99Z"/>
  <path class="cls-10" d="M204.82,317.27c.35.55.11,2.47-.36,3.07-2.25,2.87-5.74-3.37-1.68-3.59.46-.02,1.86.24,2.04.51Z"/>
  <path class="cls-10" d="M392.9,340.9c-1.89-.6-.74-4.77,1.78-3.42,1.73.92,1.52,4.48-1.78,3.42Z"/>
  <path class="cls-10" d="M291.04,288.17c3.12-1.04,3.9,3.52.4,3.31-2.64-.16-1.61-2.91-.4-3.31Z"/>
  <path class="cls-9" d="M263.84,323.94c3.31-1.12,3.43,3.46.8,3.68-1.61.14-2.34-3.16-.8-3.68Z"/>
  <path class="cls-9" d="M282.07,294.37c1.11.7.24,4.54-1.83,3.54-2.28-1.1-.51-5.02,1.83-3.54Z"/>
  <path class="cls-9" d="M405.1,366.26c-.86,1.35-4.45-.09-3.05-2.33s4.17.56,3.05,2.33Z"/>
  <path class="cls-9" d="M411.91,429.84c2.1-1.31,3.97,1.92,2.35,3.06-2.52,1.78-3.78-2.17-2.35-3.06Z"/>
  <path class="cls-10" d="M383.24,459.34c-2.01-.14-4.98.91-3.58-1.91,1.03-2.06,4.61-1.01,3.58,1.91Z"/>
  <path class="cls-9" d="M160.83,387.83c2.02-.66,3.47,2.16,2.12,3.09-2.56,1.77-4.08-2.45-2.12-3.09Z"/>
  <path class="cls-9" d="M170.38,353.03c3.44-1.16,3.28,3.54.42,3.32-1.64-.13-1.66-2.9-.42-3.32Z"/>
  <path class="cls-10" d="M179.14,370.62c-.89,0-1.9.17-2.67-.43-3.06-2.41,3.79-5.4,2.67.43Z"/>
  <path class="cls-9" d="M373.15,475.49c-.52.33-2.04-.05-2.79.07-.87-6.49,5.48-1.75,2.79-.07Z"/>
  <path class="cls-10" d="M416.55,406.94c.27.17.75,2.53.52,2.78-1.16.18-2.17.59-3.26-.04-.84-1.95,1.11-3.76,2.74-2.74Z"/>
  <path class="cls-10" d="M243.5,291.46c.79,1.08-1.82,4.3-3.11,2.39-1.84-2.73,2.36-3.42,3.11-2.39Z"/>
  <path class="cls-9" d="M378.88,315.35c1.49.91-.32,4.08-2.8,2.8v-2.87c.74.13,2.28-.25,2.8.06Z"/>
  <path class="cls-10" d="M198.17,451.76c.94.66.48,4.74-1.89,3.08-1.51-1.06.16-4.29,1.89-3.08Z"/>
  <path class="cls-9" d="M194.33,490.89c1.1,1.76-1.38,4.04-2.59,2.35-1.31-1.84,1.72-3.73,2.59-2.35Z"/>
  <path class="cls-9" d="M319.4,291.03c.87-1.39,3.9.51,2.59,2.35-1.21,1.69-3.69-.59-2.59-2.35Z"/>
  <path class="cls-13" d="M381.8,361.56v-1.43c.12,1.06.02.75,0,1.43Z"/>
  <path class="cls-13" d="M394.68,429.29c0-.12,0-.36,0-.48v.48Z"/>
  <path class="cls-13" d="M394.68,431.68s0-.29,0-.48v.48Z"/>
  <path class="cls-5" d="M209.66,367.28c.09-.39.47-.44.48-.48l-.48.48Z"/>
  <path class="cls-5" d="M210.13,364.42c.08-.39.47-.44.48-.48l-.48.48Z"/>
  <polygon class="cls-5" points="209.18 374.92 209.18 374.44 209.65 374.68 209.18 374.92"/>
  <path class="cls-5" d="M305.34,420.4c9.68,10.57-2.37,21.01-13.43,21.76-9.81.67-24.94-5.66-21.45-17.64,3.81-13.1,26.67-13.08,34.88-4.13ZM285,417.37c-4.75.56-5.48.38-9.06,3.82-2.93,2.81-4.28,4.77-2.86,9.06,2.25,6.83,12.46,9.55,18.85,9.08,5.1-.38,13.74-3.79,14.53-9.56.74-5.44-4.51-8.53-8.58-10.49-3.35-1.61-5.12-2.29-9.06-2.38-1.67-.04-2.48.32-3.81.48Z"/>
  <path class="cls-11" d="M281.66,357.27c-.22-.63-1.68-3.58-1.43-3.81l22.41-.95c-.73,2.37-2.25,5.33-2.86,7.63l-4.58-1.85c-4.01-.56-8.93-.05-12.8-.5-.41-.05-.29-.42-.28-.78l-.46.27Z"/>
  <path class="cls-9" d="M266.88,340.1c21.9,18.51,19.41,63.77-8.59,74.64-26.74,10.38-45.28-17.36-44.82-41.25.03-1.61.29-2.77.48-4.29.81-6.49,2.05-10.08,4.77-15.74.86,1.13,1.37,1.87,1.43,3.34.11,2.54-2.44,6.86-3.1,10.01-7.93,37.9,34.61,67.87,56.53,31.84,10.65-17.51,8.19-33.04-1.92-49.96-1.15-1.93-2.24-3.75-3.49-5.55-.59-.85-1.89-.86-1.28-3.04Z"/>
  <path class="cls-9" d="M315.52,341.05c1.57,5.01-1.45,3.15-2.32,3.88-.44.36-.78,3.64-1.01,4.23-1.94,5-5.72,8.4-7.39,14.78-4.87,18.52,4.93,48.7,26.69,50.58,33.24,2.88,46.77-40.86,28.39-64.41l1.91-1.91c4.26,6.23,6.47,10.83,7.63,18.6.55,3.69.8,8.69.48,12.4-1.96,22.28-20.75,44.81-44.95,35.66-22.81-8.63-27.7-40.78-18.7-60.92,1.09-2.45,7.01-12.41,9.28-12.89Z"/>
  <path class="cls-13" d="M266.88,340.1c-.62,2.18.68,2.19,1.28,3.04,1.25,1.79,2.34,3.62,3.49,5.55-3.19-1.88-5.36-4.91-8.61-6.89-13.12-7.98-28.21-3.83-37.63,7.62l-5.26,7.38c-.06-1.47-.57-2.21-1.43-3.34,1.16-2.41,1.93-4.17,3.34-6.2l1.42,1.43c1.09-1.03.35-3.67.48-3.81.4-.43,4.23.08,4.55-.47.21-.35.01-3.98.22-4.78,11.72-9.87,26.58-9.3,38.15.48Z"/>
  <path class="cls-13" d="M361.78,348.21l-1.91,1.91c-12.63-16.18-34.39-16.47-47.69-.95.23-.59.57-3.87,1.01-4.23.88-.72,3.9,1.13,2.32-3.88.14-.03.33,0,.48,0,.06,0,.4.5,1.1.46.52-.03,2.39-.45,2.72-.71.47-.37.35-1.2.62-1.5.3-.33,3.6-2.23.8-2.54.91-.55,1.24-.89,2.38-1.43,1.35,1.18,4.72,0,4.77-1.91,15.06-3.59,25.25,2.91,33.38,14.79Z"/>
  <path class="cls-9" d="M321.24,336.76c2.8.31-.51,2.21-.8,2.54-.28.3-.15,1.14-.62,1.5-.33.26-2.19.68-2.72.71-.7.04-1.04-.46-1.1-.46.77-2.2,3.52-3.25,5.25-4.29Z"/>
  <path class="cls-9" d="M228.73,339.62c-.2.8,0,4.44-.22,4.78-.33.54-4.16.04-4.55.47-.14.15.61,2.78-.48,3.81l-1.42-1.43c2.19-3.16,3.69-5.12,6.68-7.63Z"/>
  <path class="cls-9" d="M328.4,333.42c-.05,1.9-3.42,3.08-4.77,1.91,1.7-.8,2.86-1.45,4.77-1.91Z"/>
  <path class="cls-1" d="M221.1,461.73c3.92,2.55,7.84,5.64,11.97,7.82,4.61,2.43,6.7,2.32,10.92,3.63,6.1,1.89,11.58,4.51,18.02,6.06,22.07,5.31,48.01,3.46,68.77-6.06,1.18.43,3.09.65,2.61-.94,2.89.88,5.83-1.72,8.36-2.87.41-.19,1.3-.15,2.09-.52,1.2-.57,7.21-4.49,7.92-3.77.78,2.05-.71,2.7-.91,3.24-3.52,9.42-10.14,15.56-17.97,21.55-.57.43-1.38.43-1.15,1.45-5.24,1.59-18.14,6.21-22.66,6.67s-13.71-.19-18.61-.45c-11.17-.6-23.92-1.87-34.65-4.93-7.39-2.11-13.63-5.99-20.41-9.4-1.05-2.43-4.74-4.12-6.51-5.89-3.68-3.65-5.63-8.27-8.27-12.24.73-.56.59-2.42.48-3.34Z"/>
  <path class="cls-8" d="M331.73,491.3c-.23-1.02.58-1.02,1.15-1.45,7.83-5.99,14.45-12.13,17.97-21.55.2-.54,1.69-1.19.91-3.24-.72-.71-6.73,3.21-7.92,3.77-.79.37-1.68.33-2.09.52l-.48-2.38c2.47-1.6,4.94-3.03,7.16-5,3.42-3.02,5.7-6.78,9.05-9.78-.09,3.84-1.24,7.52-1.84,11.27-.33,2.08.06,4.68-.5,6.63-1.64,5.75-9.01,15.41-14.35,18.1-2.8,1.41-6.06,2.2-9.05,3.11Z"/>
  <path class="cls-8" d="M243.99,473.17c-4.22-1.31-6.3-1.19-10.92-3.63-4.13-2.18-8.05-5.27-11.97-7.82-.41-3.41-3.02-1.48-4.77-4.77-1.22-2.3-2.25-7.16-.72-9.53,6.69,11.52,16.52,19.87,28.37,25.75Z"/>
  <path class="cls-8" d="M220.62,465.07c2.64,3.97,4.59,8.58,8.27,12.24,1.78,1.77,5.46,3.45,6.51,5.89-4.09-2.06-8.97-3.09-12.42-6.42-4.05-3.9-4.05-7.54-5.22-12.66,1.35-1.45,1.89-.51,2.86.95Z"/>
  <path class="cls-15" d="M216.33,456.96c1.75,3.29,4.36,1.36,4.77,4.77.11.92.26,2.78-.48,3.34-.97-1.46-1.51-2.4-2.86-.95-.55-2.4-1.58-4.67-1.43-7.15Z"/>
  <path class="cls-4" d="M341.75,469.36c-2.53,1.15-5.47,3.76-8.36,2.87.49,1.59-1.43,1.37-2.61.94,3.5-1.61,7.24-4.09,10.49-6.2l.48,2.38Z"/>
  <path class="cls-1" d="M288.82,416.89c-.45,2.5.11,5.69,3.13,6.18,3.46.56,2.83-1.32,3.65-1.79,1.12-.64,1.66.94,2.28-2,4.07,1.96,9.33,5.05,8.58,10.49-1.01-2-.93-.06-1.78.49-7.21,4.63-14.98,6.82-23.5,4.05-2.89-.94-5.12-3.66-8.1-4.06-1.41-4.29-.06-6.26,2.86-9.06.7,2.17,7.18,2.91,8.07,1.86.2-.24-.12-1.14.06-1.49.24-.47.84-.38.92-.7.25-1.01-.13-2.4.01-3.49,1.34-.16,2.15-.52,3.81-.48Z"/>
  <path class="cls-8" d="M306.46,429.77c-.79,5.77-9.42,9.18-14.53,9.56-6.39.47-16.6-2.25-18.85-9.08,2.98.4,5.21,3.12,8.1,4.06,8.52,2.77,16.29.57,23.5-4.05.86-.55.78-2.49,1.78-.49Z"/>
  <path class="cls-7" d="M297.88,419.28c-.62,2.95-1.16,1.37-2.28,2-.82.47-.19,2.35-3.65,1.79-3.02-.49-3.58-3.68-3.13-6.18,3.94.09,5.72.77,9.06,2.38Z"/>
  <path class="cls-7" d="M285,417.37c-.14,1.09.23,2.48-.01,3.49-.08.32-.68.23-.92.7-.18.35.14,1.25-.06,1.49-.89,1.04-7.37.31-8.07-1.86,3.59-3.44,4.31-3.25,9.06-3.82Z"/>
  <path class="cls-7" d="M271.65,348.68c10.12,16.92,12.58,32.45,1.92,49.96-21.92,36.03-64.46,6.06-56.53-31.84.66-3.16,3.21-7.48,3.1-10.01l5.26-7.38c9.42-11.45,24.51-15.6,37.63-7.62,3.25,1.98,5.42,5.01,8.61,6.89ZM227.78,362.99c-5.96,14.6-.43,37.63,16.31,42.11,18.27,4.89,29.97-14.86,28.98-30.89-1.07-17.27-17.08-33-34.32-23.86,8.93,8.51-1.54,20.85-10.97,12.64Z"/>
  <path class="cls-7" d="M359.87,350.11c18.38,23.55,4.85,67.28-28.39,64.41-21.76-1.88-31.56-32.06-26.69-50.58,1.68-6.38,5.45-9.79,7.39-14.78,13.29-15.52,35.05-15.23,47.69.95ZM351.76,355.36c-7.8-10.03-23.14-10.28-31.46-.71,6.28,2.99,3.01,12.63-3.7,9.89-.89-.36-2.09-2.53-2.75-1.55-2.52,3.76-2.75,14.31-2.08,18.78,2.09,13.93,13.89,28.06,29.29,23.23,13.42-4.21,19-20.29,17.85-33.17-.09-.98-1.61-8.04-1.9-8.36-.84-.9-1.35,1.89-1.68,2.37-3.05,4.35-9.68,3.93-11.76-1.08-2.38-5.74,2.37-10.42,8.2-9.4ZM352.52,363.77c3.05-5.86-6.15-7.99-5.57-1.49.26,2.96,4.44,3.65,5.57,1.49Z"/>
  <path class="cls-12" d="M227.78,362.99c9.44,8.21,19.9-4.13,10.97-12.64,17.24-9.15,33.25,6.58,34.32,23.86.99,16.03-10.71,35.78-28.98,30.89-16.74-4.48-22.27-27.51-16.31-42.11ZM262.85,386.14c-2.85,2.41-4.86,7.16-9.11,7.83-4.7.74-7.97-.27-11.43-3.3-2.01-1.76-4.08-5.66-6.71-5.74-1.48-.05-2.17,3.32-2.1,4.53.34,5.8,6.13,12.06,11.55,13.74,6.79,2.1,13.06-.32,17.55-5.61,2.13-2.5,7.96-10.43,2.48-12.06-1.73-.51-1.46-.04-2.24.61Z"/>
  <path class="cls-12" d="M351.76,355.36c-5.83-1.02-10.58,3.67-8.2,9.4,2.08,5,8.7,5.43,11.76,1.08.34-.48.84-3.26,1.68-2.37.29.31,1.82,7.37,1.9,8.36,1.15,12.87-4.43,28.96-17.85,33.17-15.4,4.83-27.2-9.3-29.29-23.23-.67-4.47-.44-15.02,2.08-18.78.66-.98,1.86,1.19,2.75,1.55,6.71,2.74,9.98-6.9,3.7-9.89,8.32-9.57,23.66-9.32,31.46.71ZM320.64,385.49c-4.58,1.32.04,9.52,1.84,11.8,6.32,8.04,15.94,8.87,23.8,2.43,2.65-2.18,10.52-12.5,4.54-14.12-2.37-.64-5.09,4.82-6.72,6.21-3.72,3.18-10.56,3.52-14.71.94-2.81-1.74-5.35-8.25-8.76-7.27Z"/>
  <path class="cls-11" d="M352.52,363.77c-1.13,2.16-5.3,1.48-5.57-1.49-.58-6.5,8.62-4.37,5.57,1.49Z"/>
  <path class="cls-3" d="M262.85,386.14c.77-.65.5-1.12,2.24-.61,5.47,1.62-.35,9.55-2.48,12.06-4.49,5.28-10.77,7.71-17.55,5.61-5.43-1.68-11.21-7.94-11.55-13.74-.07-1.21.62-4.57,2.1-4.53,2.64.08,4.7,3.99,6.71,5.74,3.45,3.02,6.72,4.03,11.43,3.3,4.25-.67,6.26-5.42,9.11-7.83Z"/>
  <path class="cls-3" d="M320.64,385.49c3.41-.98,5.95,5.52,8.76,7.27,4.15,2.57,10.99,2.24,14.71-.94,1.64-1.4,4.35-6.86,6.72-6.21,5.98,1.62-1.89,11.94-4.54,14.12-7.86,6.45-17.49,5.61-23.8-2.43-1.8-2.29-6.42-10.48-1.84-11.8Z"/>
</svg>